<?xml version="1.0" encoding="UTF-8"?>
<svg version="1.1" xmlns="http://www.w3.org/2000/svg" width="180" height="180">
<path d="M0 0 C4.64544486 3.64810032 9.1500265 7.39823255 13.15356445 11.75830078 C13.15356445 12.41830078 13.15356445 13.07830078 13.15356445 13.75830078 C13.81356445 13.75830078 14.47356445 13.75830078 15.15356445 13.75830078 C16.80981445 15.84033203 16.80981445 15.84033203 18.65356445 18.57080078 C19.26200195 19.46412109 19.87043945 20.35744141 20.49731445 21.27783203 C24.15356445 26.7535838 24.15356445 26.7535838 24.15356445 29.75830078 C6.62011775 31.56600293 6.62011775 31.56600293 1.2434082 27.62548828 C-0.1733814 25.72407719 -1.52292331 23.77103192 -2.80737305 21.77783203 C-10.32137577 10.65077436 -25.87730108 4.00799648 -38.59643555 0.82080078 C-60.84100544 -3.1962773 -81.2212628 1.35465487 -99.9440918 13.82080078 C-115.1952415 25.48975358 -124.23330816 42.19217253 -127.4128418 60.97314453 C-129.93568252 82.99686222 -124.38521675 102.73526016 -110.85424805 120.35205078 C-99.71262398 133.57507714 -83.93340309 142.12783398 -66.84643555 144.75830078 C-45.30131047 146.40482273 -24.86956543 142.9796003 -7.9284668 128.72705078 C5.37365978 116.14867968 13.62096513 102.44787895 16.7980957 84.32861328 C16.93074829 83.59650635 17.06340088 82.86439941 17.20007324 82.11010742 C17.5224891 80.32699491 17.8386836 78.54275931 18.15356445 76.75830078 C17.3245739 76.77162445 17.3245739 76.77162445 16.47883606 76.78521729 C10.72004553 76.87379984 4.96144895 76.93407999 -0.79785156 76.97802734 C-2.94636905 76.99812664 -5.09483194 77.02541071 -7.24316406 77.06005859 C-10.3337146 77.10864991 -13.4235411 77.13128657 -16.5144043 77.14892578 C-17.95217476 77.17989349 -17.95217476 77.17989349 -19.41899109 77.21148682 C-23.6976307 77.21292224 -26.1783383 77.15040916 -29.9296875 74.94873047 C-32.59709606 71.90045769 -32.84643555 69.77097563 -32.84643555 65.75830078 C-31.64380502 62.90996533 -30.71336006 61.31921696 -28.11151123 59.63577271 C-25.22360899 58.51702283 -22.88990172 58.51845175 -19.79272461 58.53125 C-18.57176086 58.53140106 -17.35079712 58.53155212 -16.09283447 58.53170776 C-14.12235138 58.54719162 -14.12235138 58.54719162 -12.11206055 58.56298828 C-10.75014453 58.56672037 -9.38822582 58.56956642 -8.02630615 58.57156372 C-4.44895969 58.57918484 -0.87177669 58.59882009 2.70550537 58.62097168 C6.35874216 58.641463 10.01200546 58.65057245 13.6652832 58.66064453 C20.82811799 58.68206756 27.99081828 58.71618496 35.15356445 58.75830078 C35.21042472 63.21267479 35.24446064 67.66695376 35.2746582 72.12158203 C35.2990094 73.996745 35.2990094 73.996745 35.32385254 75.90979004 C35.43443775 97.70221042 27.49006349 116.42635756 13.15356445 132.75830078 C12.54770508 133.56138672 11.9418457 134.36447266 11.31762695 135.19189453 C-1.53425502 150.43320582 -22.43639024 159.9025456 -41.84643555 162.75830078 C-68.66412398 164.62803636 -92.97869494 159.42509002 -113.84643555 141.75830078 C-128.25533649 129.17066974 -138.14309133 113.4085559 -142.84643555 94.75830078 C-143.015625 94.14180664 -143.18481445 93.5253125 -143.35913086 92.89013672 C-149.25292249 69.62073041 -144.07521026 44.43066577 -132.2253418 23.95751953 C-118.71387181 3.64171214 -98.22043622 -11.13139193 -74.29956055 -16.39013672 C-48.06911106 -21.10295941 -21.31142845 -16.19462261 0 0 Z " fill="#92422D" transform="translate(144.846435546875,17.24169921875)"/>
<path d="M0 0 C1.24819519 0.00565979 2.49639038 0.01131958 3.78240967 0.01715088 C7.72514032 0.03934029 11.66692424 0.08950576 15.609375 0.140625 C18.30075813 0.16299847 20.99216659 0.17923457 23.68359375 0.1953125 C30.24250438 0.2391479 36.80087202 0.30588386 43.359375 0.390625 C47.95163013 12.87581862 47.95163013 12.87581862 47.359375 19.390625 C46.30820999 19.39942436 46.30820999 19.39942436 45.23580933 19.40840149 C38.61519735 19.46642763 31.9949046 19.53856059 25.37461662 19.62633991 C21.97144843 19.67097077 18.56839793 19.7102423 15.16503906 19.73706055 C11.24778933 19.76816729 7.33103924 19.82295392 3.4140625 19.87890625 C2.19822479 19.88529617 0.98238708 19.8916861 -0.27029419 19.89826965 C-7.22415864 20.01893444 -12.48313093 20.23313093 -17.640625 25.390625 C-18.960625 25.390625 -20.280625 25.390625 -21.640625 25.390625 C-22.94304125 31.57710217 -23.74649311 38.21125417 -21.640625 44.265625 C-17.71793263 48.43348564 -12.78744829 50.55244751 -7.09228516 50.9206543 C-5.45503965 50.9546688 -3.81728194 50.96862096 -2.1796875 50.96484375 C-1.30790863 50.97900833 -0.43612976 50.99317291 0.46206665 51.00776672 C3.21963157 51.04937185 5.97654157 51.06485923 8.734375 51.078125 C11.51332941 51.10719758 14.29212008 51.1416907 17.07095337 51.18061829 C18.7936763 51.2030851 20.51650113 51.21891704 22.23934937 51.22746277 C28.14019075 51.28103288 28.14019075 51.28103288 30.359375 52.390625 C30.27017833 53.89158957 30.16202416 55.39142809 30.046875 56.890625 C29.98886719 57.7259375 29.93085938 58.56125 29.87109375 59.421875 C29.42054771 62.03572991 28.77336747 64.1181789 27.82739258 66.57617188 C27.41666252 67.64973938 27.41666252 67.64973938 26.99763489 68.74499512 C26.68169624 69.55958191 26.68169624 69.55958191 26.359375 70.390625 C20.57939552 70.49029965 14.79992812 70.56247083 9.01928711 70.61035156 C7.05728426 70.63033418 5.09533995 70.65752984 3.13354492 70.69238281 C-12.80903233 70.96830423 -25.28389892 69.72193265 -37.61328125 58.61328125 C-43.7820642 52.20874863 -46.82611097 44.65660734 -46.953125 35.765625 C-46.82761687 31.57761687 -46.82761687 31.57761687 -45.640625 30.390625 C-45.22360378 27.4748559 -45.22360378 27.4748559 -45.640625 24.390625 C-48.65420194 21.39019328 -50.97644247 21.00603994 -55.14355469 20.95825195 C-56.24439392 20.93845779 -57.34523315 20.91866364 -58.47943115 20.89826965 C-59.66184387 20.89187973 -60.84425659 20.88548981 -62.0625 20.87890625 C-63.27762268 20.86095505 -64.49274536 20.84300385 -65.74468994 20.82450867 C-69.62663297 20.77031642 -73.50845241 20.7364803 -77.390625 20.703125 C-80.02215265 20.66995992 -82.65366397 20.63547103 -85.28515625 20.59960938 C-91.73686835 20.5145846 -98.18859627 20.44627229 -104.640625 20.390625 C-105.96577541 16.13154306 -104.93973925 13.83291513 -103.265625 9.703125 C-102.80414063 8.54425781 -102.34265625 7.38539062 -101.8671875 6.19140625 C-100.640625 3.390625 -100.640625 3.390625 -99.640625 2.390625 C-98.00609657 2.28146906 -96.36688448 2.24155914 -94.72875977 2.22949219 C-93.67999161 2.21988464 -92.63122345 2.2102771 -91.55067444 2.20037842 C-90.40602219 2.19612854 -89.26136993 2.19187866 -88.08203125 2.1875 C-86.90857651 2.18179993 -85.73512177 2.17609985 -84.52610779 2.17022705 C-82.03181871 2.1607545 -79.53751699 2.15423418 -77.04321289 2.15039062 C-73.25058561 2.1407457 -69.45851415 2.1097683 -65.66601562 2.078125 C-63.24219072 2.0715891 -60.81836193 2.06634094 -58.39453125 2.0625 C-56.70487999 2.0439798 -56.70487999 2.0439798 -54.98109436 2.02508545 C-46.16127206 2.04965906 -38.02222657 3.2235039 -30.640625 8.390625 C-30.063125 7.813125 -29.485625 7.235625 -28.890625 6.640625 C-20.07808196 0.53963367 -10.42591897 -0.18166092 0 0 Z M-26.640625 12.390625 C-26.310625 13.380625 -25.980625 14.370625 -25.640625 15.390625 C-25.640625 14.400625 -25.640625 13.410625 -25.640625 12.390625 C-25.970625 12.390625 -26.300625 12.390625 -26.640625 12.390625 Z M-24.640625 15.390625 C-23.640625 17.390625 -23.640625 17.390625 -23.640625 17.390625 Z M-23.640625 17.390625 C-22.640625 19.390625 -22.640625 19.390625 -22.640625 19.390625 Z M-22.640625 20.390625 C-21.640625 24.390625 -21.640625 24.390625 -21.640625 24.390625 Z " fill="#A74D24" transform="translate(128.640625,49.609375)"/>
<path d="M0 0 C1.06965872 6.32448699 2.13329546 12.64416673 3 19 C0.15686669 19.80974903 -2.35702965 20.12241859 -5.30957031 20.11352539 C-6.15013977 20.11344986 -6.99070923 20.11337433 -7.85675049 20.11329651 C-9.20383087 20.10555458 -9.20383087 20.10555458 -10.578125 20.09765625 C-11.5046991 20.0962413 -12.43127319 20.09482635 -13.38592529 20.09336853 C-16.34064992 20.08777824 -19.29529833 20.0752275 -22.25 20.0625 C-24.25520724 20.05748375 -26.26041567 20.05292106 -28.265625 20.04882812 C-33.17713621 20.03866357 -38.08848294 20.01908621 -43 20 C-43 30.56 -43 41.12 -43 52 C-44.32 52 -45.64 52 -47 52 C-55.05454107 37.93897424 -61.17607058 24.22293856 -61.125 7.625 C-61.12757812 6.77164063 -61.13015625 5.91828125 -61.1328125 5.0390625 C-61 3 -61 3 -60 2 C-58.29269132 1.8821588 -56.58061234 1.83267532 -54.86938477 1.81054688 C-53.77477432 1.79382935 -52.68016388 1.77711182 -51.55238342 1.7598877 C-49.76494972 1.73952454 -49.76494972 1.73952454 -47.94140625 1.71875 C-46.72678207 1.70034058 -45.5121579 1.68193115 -44.26072693 1.66296387 C-40.36136895 1.60399248 -36.46196636 1.55127409 -32.5625 1.5 C-27.43870506 1.43253602 -22.31505661 1.35884537 -17.19140625 1.28125 C-16.00180801 1.26767456 -14.81220978 1.25409912 -13.58656311 1.2401123 C-12.48880051 1.22339478 -11.3910379 1.20667725 -10.26000977 1.18945312 C-9.2903981 1.17692505 -8.32078644 1.16439697 -7.3217926 1.15148926 C-4.50951431 0.96799744 -2.90897473 0 0 0 Z " fill="#853B32" transform="translate(81,84)"/>
</svg>
